#!OML:ASF H:\Not Pregnant\Project 1\Capture day 1\Session 1\non-pregnant.ASF
:FULLY-SPECIFIED
:DEGREES
684
root -4.81385 15.8056 33.3348 138.634 -77.2931 -131.683
lowerback -7.33753 1.69055 7.32889
upperback -3.33733 1.56865 2.37419
thorax 0.782905 0.665684 -1.52641
lowerneck 23.3922 -9.3752 -22.0879
upperneck -9.55638 -26.6888 54.9401
head 8.06977 -20.5291 32.6184
rclavicle -3.69739e-014 -5.36719e-015
rhumerus -32.5179 10.8033 -93.3639
rradius 25.7556
rwrist 19.9831
rhand -8.02607 2.62288
rfingers 7.12502
rthumb 17.8838 -26.5748
lclavicle -3.69739e-014 -5.36719e-015
lhumerus -40.9847 -15.3376 97.3588
lradius 33.3167
lwrist 38.7986
lhand -19.0387 -15.5649
lfingers 7.12502
lthumb 7.26778 14.2903
rfemur -13.0892 -3.03214 34.4371
rtibia 22.5635
rfoot -18.1257 9.93569
rtoes -8.33736
lfemur -19.7093 -4.12354 -2.14209
ltibia 33.3266
lfoot -18.0143 5.4674
ltoes -28.58
685
root -4.81262 15.8033 33.3266 138.175 -77.3039 -131.232
lowerback -7.38938 1.67085 7.36435
upperback -3.3514 1.53265 2.4189
thorax 0.793736 0.646636 -1.50185
lowerneck 23.4895 -9.40526 -22.04
upperneck -9.38152 -26.9059 54.9456
head 8.24692 -20.6706 32.5556
rclavicle -8.94531e-016 3.18055e-014
rhumerus -32.4935 10.5768 -93.2226
rradius 25.7119
rwrist 19.9264
rhand -7.7706 2.65869
rfingers 7.12502
rthumb 18.1296 -26.5164
lclavicle -8.94531e-016 3.18055e-014
lhumerus -40.979 -15.2466 97.3554
lradius 33.3468
lwrist 39.0042
lhand -18.6048 -15.6119
lfingers 7.12502
lthumb 7.68663 14.2284
rfemur -13.0764 -3.18305 34.5366
rtibia 22.5548
rfoot -18.1448 10.0303
rtoes -8.25761
lfemur -19.773 -4.3937 -2.03829
ltibia 33.4448
lfoot -17.9978 5.68534
ltoes -28.5231
686
root -4.81157 15.8012 33.3185 137.764 -77.3158 -130.823
lowerback -7.44496 1.64436 7.37704
upperback -3.36824 1.48864 2.47007
thorax 0.802522 0.623633 -1.45864
lowerneck 23.5794 -9.43302 -21.998
upperneck -9.20938 -27.1127 54.9451
head 8.41632 -20.8023 32.4856
rclavicle -1.71203e-014 -2.80286e-014
rhumerus -32.4833 10.4106 -93.1001
rradius 25.6915
rwrist 19.852
rhand -7.518 2.67909
rfingers 7.12502
rthumb 18.3726 -26.4733
lclavicle -1.71203e-014 -2.80286e-014
lhumerus -40.9857 -15.1508 97.3655
lradius 33.3958
lwrist 39.2036
lhand -18.2693 -15.6343
lfingers 7.12502
lthumb 8.01038 14.1939
rfemur -13.0678 -3.31787 34.6286
rtibia 22.5453
rfoot -18.1661 10.1035
rtoes -8.22686
lfemur -19.8347 -4.65656 -1.94563
ltibia 33.5524
lfoot -17.9784 5.90907
ltoes -28.4643
687
root -4.81073 15.7996 33.3108 137.402 -77.3289 -130.459
lowerback -7.5012 1.61791 7.37571
upperback -3.38713 1.44561 2.52261
thorax 0.809373 0.601132 -1.40622
lowerneck 23.67 -9.46439 -21.9466
upperneck -9.06136 -27.3088 54.9493
head 8.56836 -20.9266 32.4136
rclavicle 3.70361e-014 3.55825e-014
rhumerus -32.4849 10.2985 -92.993
rradius 25.6917
rwrist 19.7611
rhand -7.27341 2.69816
rfingers 7.12502
rthumb 18.6078 -26.4318
lclavicle 3.70361e-014 3.55825e-014
lhumerus -41.0153 -15.0945 97.4156
lradius 33.4738
lwrist 39.379
lhand -18.1216 -15.6083
lfingers 7.12502
lthumb 8.15297 14.2144
rfemur -13.0619 -3.42671 34.7098
rtibia 22.5353
rfoot -18.18 10.1558
rtoes -8.1892
lfemur -19.8917 -4.9126 -1.86504
ltibia 33.6476
lfoot -17.9563 6.13801
ltoes -28.3991
688
root -4.81002 15.7981 33.3035 137.067 -77.3373 -130.118
lowerback -7.55774 1.59564 7.3731
upperback -3.40848 1.40809 2.57712
thorax 0.814264 0.581218 -1.35062
lowerneck 23.7702 -9.49829 -21.8962
upperneck -8.94558 -27.4945 54.9583
head 8.70246 -21.0464 32.3501
rclavicle 1.76918e-014 -3.06128e-014
rhumerus -32.4981 10.2395 -92.8952
rradius 25.7107
rwrist 19.6495
rhand -7.04912 2.71723
rfingers 7.12502
rthumb 18.8236 -26.392
lclavicle 1.76918e-014 -3.06128e-014
lhumerus -41.0688 -15.0823 97.5119
lradius 33.5823
lwrist 39.5312
lhand -18.1555 -15.5286
lfingers 7.12502
lthumb 8.12023 14.2953
rfemur -13.0596 -3.52416 34.79
rtibia 22.5243
rfoot -18.1897 10.2013
rtoes -8.1508
lfemur -19.9439 -5.15937 -1.78647
ltibia 33.7303
lfoot -17.9344 6.36391
ltoes -28.3232
689
root -4.80952 15.7969 33.2965 136.769 -77.3435 -129.812
lowerback -7.61432 1.58359 7.37165
upperback -3.43184 1.3843 2.6264
thorax 0.818335 0.568055 -1.29994
lowerneck 23.8887 -9.53906 -21.8337
upperneck -8.87347 -27.6672 54.9779
head 8.80848 -21.1609 32.295
rclavicle -2.39039e-014 -9.14409e-015
rhumerus -32.5299 10.2337 -92.8216
rradius 25.7526
rwrist 19.4935
rhand -6.86133 2.72725
rfingers 7.12502
rthumb 19.0042 -26.3643
lclavicle -2.39039e-014 -9.14409e-015
lhumerus -41.1392 -15.1139 97.6352
lradius 33.6952
lwrist 39.6512
lhand -18.2657 -15.4618
lfingers 7.12502
lthumb 8.01388 14.3663
rfemur -13.0591 -3.59872 34.8634
rtibia 22.5136
rfoot -18.1896 10.2382
rtoes -8.06578
lfemur -19.9882 -5.39385 -1.71419
ltibia 33.7986
lfoot -17.9115 6.58922
ltoes -28.2582
690
root -4.80916 15.7959 33.2897 136.516 -77.3473 -129.548
lowerback -7.67007 1.58453 7.37254
upperback -3.45894 1.37806 2.6679
thorax 0.819642 0.56344 -1.25713
lowerneck 24.0335 -9.58448 -21.7693
upperneck -8.84354 -27.8288 55.0056
head 8.88919 -21.2732 32.2552
rclavicle -1.59152e-014 1.68967e-015
rhumerus -32.583 10.2656 -92.7723
rradius 25.8138
rwrist 19.3027
rhand -6.7113 2.73027
rfingers 7.12502
rthumb 19.1485 -26.3471
lclavicle -1.59152e-014 1.68967e-015
lhumerus -41.2172 -15.1635 97.7569
lradius 33.7908
lwrist 39.7244
lhand -18.3102 -15.4316
lfingers 7.12502
lthumb 7.97093 14.3981
rfemur -13.0614 -3.65546 34.9309
rtibia 22.5051
rfoot -18.188 10.2659
rtoes -7.98447
lfemur -20.0242 -5.61353 -1.64737
ltibia 33.8523
lfoot -17.8921 6.80217
ltoes -28.1759
691
root -4.80886 15.7951 33.2832 136.3 -77.3501 -129.319
lowerback -7.72559 1.59694 7.37641
upperback -3.48814 1.38721 2.70169
thorax 0.820015 0.566403 -1.22263
lowerneck 24.1951 -9.63611 -21.7024
upperneck -8.8487 -27.9796 55.0396
head 8.94717 -21.3806 32.2218
rclavicle 1.53188e-014 2.5345e-014
rhumerus -32.6454 10.28 -92.7319
rradius 25.8801
rwrist 19.1253
rhand -6.59818 2.73908
rfingers 7.12502
rthumb 19.2572 -26.3275
lclavicle 1.53188e-014 2.5345e-014
lhumerus -41.2954 -15.2185 97.8714
lradius 33.8571
lwrist 39.732
lhand -18.2779 -15.4577
lfingers 7.12502
lthumb 8.00209 14.3708
rfemur -13.0682 -3.69144 34.9922
rtibia 22.501
rfoot -18.1819 10.2804
rtoes -7.89174
lfemur -20.0525 -5.81933 -1.58549
ltibia 33.8899
lfoot -17.872 7.00609
ltoes -28.1103
692
root -4.80859 15.7943 33.2769 136.127 -77.3531 -129.132
lowerback -7.78134 1.61666 7.38067
upperback -3.51803 1.4064 2.72663
thorax 0.82074 0.574406 -1.1966
lowerneck 24.365 -9.69118 -21.6292
upperneck -8.88403 -28.1162 55.0803
head 8.98326 -21.4809 32.1959
rclavicle 1.98785e-016 -3.57812e-015
rhumerus -32.7143 10.3138 -92.7158
rradius 25.9522
rwrist 18.9404
rhand -6.53702 2.72494
rfingers 7.12502
rthumb 19.3161 -26.3357
lclavicle 1.98785e-016 -3.57812e-015
lhumerus -41.3733 -15.2774 97.9696
lradius 33.9048
lwrist 39.6862
lhand -18.17 -15.5091
lfingers 7.12502
lthumb 8.1063 14.3154
rfemur -13.08 -3.7036 35.0459
rtibia 22.5028
rfoot -18.1737 10.2774
rtoes -7.80748
lfemur -20.0737 -6.01005 -1.53066
ltibia 33.9126
lfoot -17.8528 7.20024
ltoes -28.0575
693
root -4.80826 15.7936 33.2709 135.994 -77.3579 -128.982
lowerback -7.83646 1.63252 7.37826
upperback -3.54685 1.42117 2.74834
thorax 0.821824 0.580358 -1.17059
lowerneck 24.5348 -9.742 -21.5574
upperneck -8.93488 -28.2329 55.121
head 9.0003 -21.5699 32.1785
rclavicle 7.442e-015 -1.64991e-014
rhumerus -32.7798 10.3927 -92.7247
rradius 26.0247
rwrist 18.7485
rhand -6.51033 2.69976
rfingers 7.12502
rthumb 19.3417 -26.3583
lclavicle 7.442e-015 -1.64991e-014
lhumerus -41.4465 -15.3106 98.0408
lradius 33.9355
lwrist 39.5981
lhand -18.0149 -15.6031
lfingers 7.12502
lthumb 8.25599 14.2156
rfemur -13.0973 -3.68472 35.0907
rtibia 22.5114
rfoot -18.1632 10.246
rtoes -7.73955
lfemur -20.0899 -6.18526 -1.48343
ltibia 33.9203
lfoot -17.8345 7.37839
ltoes -28.0054
